<svg width="33" height="33" viewBox="0 0 33 33" fill="none" xmlns="http://www.w3.org/2000/svg">
<path d="M1.61162 33C1.29289 33.0001 0.981297 32.9056 0.716262 32.7285C0.451226 32.5515 0.244653 32.2998 0.122672 32.0053C0.000690235 31.7109 -0.0312197 31.3869 0.0309782 31.0742C0.0931761 30.7616 0.246688 30.4745 0.472095 30.2492L30.2493 0.472006C30.5515 0.169786 30.9614 0 31.3888 0C31.8162 0 32.2261 0.169786 32.5283 0.472006C32.8305 0.774227 33.0003 1.18413 33.0003 1.61153C33.0003 2.03893 32.8305 2.44883 32.5283 2.75105L2.75114 32.5282C2.60164 32.678 2.424 32.7968 2.22845 32.8778C2.0329 32.9588 1.82327 33.0003 1.61162 33Z" fill="white"/>
<path d="M31.3887 33C31.177 33.0003 30.9674 32.9588 30.7719 32.8778C30.5763 32.7968 30.3987 32.678 30.2492 32.5282L0.472006 2.75105C0.169786 2.44883 0 2.03893 0 1.61153C0 1.18413 0.169786 0.774227 0.472006 0.472006C0.774227 0.169786 1.18413 0 1.61153 0C2.03893 0 2.44883 0.169786 2.75105 0.472006L32.5282 30.2492C32.7536 30.4745 32.9071 30.7616 32.9693 31.0742C33.0315 31.3869 32.9996 31.7109 32.8776 32.0053C32.7556 32.2998 32.5491 32.5515 32.284 32.7285C32.019 32.9056 31.7074 33.0001 31.3887 33Z" fill="white"/>
</svg>
