<svg width="72" height="72" viewBox="0 0 72 72" fill="none" xmlns="http://www.w3.org/2000/svg">
<path d="M72 29.6719H59.3438V54.9844H72V29.6719Z" fill="white"/>
<path d="M59.3438 59.2031V61.3125C59.3438 64.802 62.1824 67.6406 65.6719 67.6406C69.1613 67.6406 72 64.802 72 61.3125V59.2031H59.3438Z" fill="white"/>
<path d="M71.3326 21.5102L67.5588 13.9626C66.8419 12.533 64.5019 12.533 63.785 13.9626L60.0112 21.5102C59.5745 22.3836 59.3438 23.3621 59.3438 24.3385V25.4529H72V24.3385C72 23.3621 71.7692 22.3836 71.3326 21.5102Z" fill="white"/>
<path d="M35.8594 4.21875H33.3896C32.5181 1.7633 30.1719 0 27.4219 0C24.6718 0 22.3256 1.7633 21.4542 4.21875H18.9844C15.4949 4.21875 12.6562 7.05741 12.6562 10.5469V12.6562H42.1875V10.5469C42.1875 7.05741 39.3488 4.21875 35.8594 4.21875Z" fill="white"/>
<path d="M48.5156 8.4375H46.4062V14.7656C46.4062 15.9315 45.4628 16.875 44.2969 16.875H10.5469C9.38095 16.875 8.4375 15.9315 8.4375 14.7656V8.4375H6.32812C2.83866 8.4375 0 11.2762 0 14.7656V65.6719C0 69.1613 2.83866 72 6.32812 72H48.5156C52.0051 72 54.8438 69.1613 54.8438 65.6719V14.7656C54.8438 11.2762 52.0051 8.4375 48.5156 8.4375ZM24.6945 54.507L16.257 62.9445C15.4329 63.7685 14.0982 63.7685 13.2742 62.9445L9.05541 58.7257C8.23148 57.9018 8.23148 56.5668 9.05541 55.7429C9.87933 54.919 11.2143 54.919 12.0382 55.7429L14.7656 58.4703L21.7118 51.5242C22.5357 50.7002 23.8707 50.7002 24.6946 51.5242C25.5185 52.3481 25.5185 53.683 24.6945 54.507ZM24.6945 39.6007L16.257 48.0382C15.4329 48.8623 14.0982 48.8623 13.2742 48.0382L9.05541 43.8195C8.23148 42.9955 8.23148 41.6606 9.05541 40.8367C9.87933 40.0127 11.2143 40.0127 12.0382 40.8367L14.7656 43.5641L21.7118 36.6179C22.5357 35.794 23.8707 35.794 24.6946 36.6179C25.5185 37.4418 25.5185 38.7768 24.6945 39.6007ZM24.6945 24.8351L16.257 33.2726C15.4329 34.0966 14.0982 34.0966 13.2742 33.2726L9.05541 29.0538C8.23148 28.2299 8.23148 26.895 9.05541 26.071C9.87933 25.2471 11.2143 25.2471 12.0382 26.071L14.7656 28.7985L21.7118 21.8523C22.5357 21.0284 23.8707 21.0284 24.6946 21.8523C25.5185 22.6762 25.5185 24.0112 24.6945 24.8351ZM44.2969 59.3438H31.6406C30.4747 59.3438 29.5312 58.4003 29.5312 57.2344C29.5312 56.0685 30.4747 55.125 31.6406 55.125H44.2969C45.4628 55.125 46.4062 56.0685 46.4062 57.2344C46.4062 58.4003 45.4628 59.3438 44.2969 59.3438ZM44.2969 44.4375H31.6406C30.4747 44.4375 29.5312 43.494 29.5312 42.3281C29.5312 41.1622 30.4747 40.2188 31.6406 40.2188H44.2969C45.4628 40.2188 46.4062 41.1622 46.4062 42.3281C46.4062 43.494 45.4628 44.4375 44.2969 44.4375ZM44.2969 29.6719H31.6406C30.4747 29.6719 29.5312 28.7284 29.5312 27.5625C29.5312 26.3966 30.4747 25.4531 31.6406 25.4531H44.2969C45.4628 25.4531 46.4062 26.3966 46.4062 27.5625C46.4062 28.7284 45.4628 29.6719 44.2969 29.6719Z" fill="white"/>
</svg>
