<svg width="67" height="67" viewBox="0 0 67 67" fill="none" xmlns="http://www.w3.org/2000/svg">
<g clip-path="url(#clip0_2_1038)">
<path d="M33.0733 38.6801C27.9706 38.6801 23.283 36.8708 19.6169 33.8606C19.2524 34.0255 18.8904 34.1964 18.532 34.3749L19.8275 36.1852C22.9327 40.5243 27.7734 43.0126 33.1087 43.0126H33.1161C34.4362 43.0121 35.7259 42.8586 36.9664 42.5631V38.3212C35.7039 38.5564 34.4029 38.6801 33.0733 38.6801Z" fill="white"/>
<path d="M16.6356 38.4699L15.115 36.345C13.2899 37.5504 11.5724 38.9474 9.9895 40.5282C9.87304 40.6445 9.75958 40.7628 9.64508 40.8806H18.6496C17.9263 40.1381 17.2539 39.3341 16.6356 38.4699Z" fill="white"/>
<path d="M42.2953 62.6375H0.440751L0.425964 67.0002H46.9121C45.4763 65.8595 43.8301 64.3887 42.2953 62.6375Z" fill="white"/>
<path d="M60.4224 67.0002H65.721L65.7062 62.6375H65.0391C63.5042 64.3886 61.8582 65.8595 60.4224 67.0002Z" fill="white"/>
<path d="M1.94232 53.7205C1.42843 55.3447 1.04017 57.013 0.786438 58.7148H39.4361C38.5344 57.1759 37.8075 55.5052 37.382 53.7205H1.94232Z" fill="white"/>
<path d="M33.1187 46.9386C33.1158 46.9386 33.1128 46.9386 33.11 46.9386C29.9744 46.9386 26.8465 46.2072 24.0637 44.8231C24.0507 44.8167 24.0381 44.8098 24.0252 44.8032H6.37761C5.25628 46.386 4.28583 48.0568 3.47162 49.7976H36.9672V46.5677C35.7014 46.8113 34.4108 46.9381 33.1187 46.9386Z" fill="white"/>
<path d="M61.4737 36.2723V34.0759H45.8611V36.2723C45.8611 38.0079 44.449 39.42 42.7134 39.42H40.7614V50.2399C40.7614 59.2521 53.6674 67 53.6674 67C53.6674 67 66.5736 59.2522 66.5736 50.2399V39.42H64.6215C62.8857 39.42 61.4737 38.008 61.4737 36.2723ZM49.999 47.433L52.7502 46.8282L54.1745 44.3985L55.5996 46.8276L58.3515 47.4316L56.4808 49.5375L56.7574 52.3404L54.1757 51.2125L51.5943 52.3414L51.8699 49.5381L49.999 47.433Z" fill="white"/>
<path d="M50.5167 17.4428C50.5167 7.82474 42.692 0 33.0739 0C23.456 0 15.6313 7.82474 15.6313 17.4428C15.6313 27.0607 23.456 34.8854 33.0739 34.8854C36.3614 34.8854 39.4391 33.9707 42.0666 32.3832C43.0709 31.7765 44.0092 31.0711 44.8685 30.281C48.3384 27.0908 50.5167 22.5166 50.5167 17.4428Z" fill="white"/>
</g>
<defs>
<clipPath id="clip0_2_1038">
<rect width="67" height="67" fill="white"/>
</clipPath>
</defs>
</svg>
