<svg width="68" height="68" viewBox="0 0 68 68" fill="none" xmlns="http://www.w3.org/2000/svg">
<g clip-path="url(#clip0_2_1063)">
<path d="M49.9374 24.0398C40.0505 24.0398 32.0078 32.0824 32.0078 41.9692C32.0078 51.856 40.0504 59.8986 49.9372 59.8986C59.8241 59.8986 67.9995 51.856 67.9995 41.9692C67.9995 32.0824 59.8242 24.0398 49.9374 24.0398ZM51.9819 51.5701C51.9646 51.5765 51.9466 51.5736 51.9293 51.5795V53.9222C51.9293 55.0234 51.0383 55.9144 49.9371 55.9144C48.836 55.9144 47.9449 55.0234 47.9449 53.9222V51.566C46.6329 51.1227 45.3757 50.2814 44.3009 49.0002C43.5928 48.1577 43.7017 46.9009 44.5461 46.1948C45.3885 45.4866 46.6492 45.5955 47.3515 46.44C48.4059 47.6948 49.5986 48.1928 50.618 47.827C51.402 47.5411 51.9293 46.7882 51.9293 45.9536C51.9293 44.8544 51.0363 43.9614 49.9371 43.9614C46.6415 43.9614 43.9607 41.2805 43.9607 37.985C43.9607 35.5784 45.3925 33.4169 47.6085 32.4794C47.7182 32.4329 47.8344 32.4355 47.945 32.396V30.0164C47.945 28.9152 48.8361 28.0242 49.9372 28.0242C51.0384 28.0242 51.9294 28.9152 51.9294 30.0164V32.3995C52.961 32.748 53.9669 33.302 54.8651 34.1719C55.6549 34.9365 55.6745 36.1972 54.9079 36.989C54.1433 37.7788 52.8806 37.7964 52.0908 37.0318C51.1219 36.0921 50.05 35.7691 49.1628 36.1486C48.4236 36.4617 47.9449 37.1816 47.9449 37.9851C47.9449 39.0843 48.8379 39.9773 49.9371 39.9773C53.2327 39.9773 55.9135 42.6582 55.9135 45.9537C55.9138 48.4574 54.334 50.7141 51.9819 51.5701Z" fill="white"/>
<path d="M1.99271 43.9614C0.891558 43.9614 0.000518799 44.8525 0.000518799 45.9536V66.008C0.000518799 67.1092 0.891558 68.0002 1.99271 68.0002H7.96914V43.9614H1.99271Z" fill="white"/>
<path d="M47.2488 12.4345L33.3036 0.481512C32.5604 -0.160504 31.4554 -0.160504 30.7122 0.481512L16.7671 12.4345C16.133 12.9753 15.9053 13.8547 16.1951 14.6368C16.483 15.4189 17.2281 15.9384 18.0629 15.9384H24.0393C24.0393 33.1614 24.0393 50.7761 24.0393 68.0002C29.1714 68.0002 32.7195 68.0002 37.9845 68.0002C39.0856 68.0002 39.9767 67.1092 39.9767 66.008V61.464C32.8922 57.829 28.0237 50.4646 28.0237 41.9693C28.0237 33.4743 32.8923 26.1097 39.9767 22.4747V15.9385H45.9531C46.7877 15.9385 47.5329 15.4191 47.8208 14.6369C48.1108 13.8547 47.8831 12.9753 47.2488 12.4345Z" fill="white"/>
<path d="M14.0784 28.0242C12.9772 28.0242 12.0862 28.9152 12.0862 30.0164V43.9615V68.0001C14.9961 68.0001 17.2295 68.0001 20.0548 68.0001V28.0242H14.0784Z" fill="white"/>
</g>
<defs>
<clipPath id="clip0_2_1063">
<rect width="68" height="68" fill="white"/>
</clipPath>
</defs>
</svg>
