<svg width="63" height="59" viewBox="0 0 63 59" fill="none" xmlns="http://www.w3.org/2000/svg">
<path d="M54.4375 29.3151H62.8125V18.8463C62.8125 17.6738 61.8913 16.7526 60.7188 16.7526H56.5312V10.4713C56.5312 9.29881 55.61 8.37756 54.4375 8.37756H49.4544L45.8531 1.17506C45.3088 0.128189 44.0525 -0.290561 43.0475 0.211939L38.19 2.64069L37.4781 1.17506C36.9338 0.128189 35.6775 -0.290561 34.6725 0.211939L18.3413 8.37756H6.28125C2.80562 8.37756 0 11.1832 0 14.6588V52.3463C0 55.8219 2.80562 58.6276 6.28125 58.6276H60.7188C61.8913 58.6276 62.8125 57.7063 62.8125 56.5338V46.0651H54.4375C49.8312 46.0651 46.0625 42.2963 46.0625 37.6901C46.0625 33.0838 49.8312 29.3151 54.4375 29.3151ZM52.3438 12.5651V14.1563L51.5481 12.5651H52.3438ZM4.31312 15.3707C4.22937 15.1613 4.1875 14.9101 4.1875 14.6588C4.1875 13.4863 5.10875 12.5651 6.28125 12.5651H9.96625L4.31312 15.3707ZM10.9712 16.7526L34.6725 4.90194L40.5769 16.7526H10.9712ZM45.2669 16.7526L40.0744 6.36756L43.0475 4.90194L48.9519 16.7526H45.2669Z" fill="white"/>
</svg>
