<svg width="23" height="23" viewBox="0 0 23 23" fill="none" xmlns="http://www.w3.org/2000/svg">
<path d="M16.6949 0H6.3051C2.82846 0 0 2.82846 0 6.30514V16.6949C0 20.1716 2.82846 23 6.3051 23H16.6949C20.1716 23 23 20.1716 23 16.6949V6.30514C23 2.82846 20.1716 0 16.6949 0ZM21.6417 16.6949C21.6417 19.4226 19.4226 21.6417 16.6949 21.6417H6.3051C3.5774 21.6417 1.35826 19.4226 1.35826 16.6949V6.30514C1.35826 3.5774 3.5774 1.35826 6.3051 1.35826H16.6949C19.4226 1.35826 21.6417 3.5774 21.6417 6.30514V16.6949Z" fill="white"/>
<path d="M11.4999 5.19189C8.02138 5.19189 5.19144 8.02184 5.19144 11.5003C5.19144 14.9788 8.02134 17.8087 11.4999 17.8087C14.9783 17.8087 17.8083 14.9788 17.8083 11.5003C17.8083 8.02179 14.9783 5.19189 11.4999 5.19189ZM11.4999 16.4505C8.77032 16.4505 6.54965 14.2298 6.54965 11.5003C6.54965 8.77073 8.77032 6.55006 11.4999 6.55006C14.2294 6.55006 16.4501 8.77078 16.4501 11.5003C16.4501 14.2299 14.2294 16.4505 11.4999 16.4505Z" fill="white"/>
<path d="M18.186 2.89746C17.1292 2.89746 16.2694 3.75731 16.2694 4.81414C16.2694 5.87097 17.1292 6.73078 18.186 6.73078C19.2428 6.73078 20.1027 5.87093 20.1027 4.8141C20.1027 3.75727 19.2428 2.89746 18.186 2.89746ZM18.186 5.37248C17.8782 5.37248 17.6276 5.12199 17.6276 4.8141C17.6276 4.5062 17.8782 4.25572 18.186 4.25572C18.4939 4.25572 18.7444 4.50625 18.7444 4.8141C18.7444 5.12195 18.4939 5.37248 18.186 5.37248Z" fill="white"/>
</svg>
