<svg width="23" height="21" viewBox="0 0 23 21" fill="none" xmlns="http://www.w3.org/2000/svg">
<path d="M22.5494 0.884587C22.1794 0.545561 21.6535 0.432583 21.1768 0.589675L0.953518 7.25613C0.402371 7.43779 0.0286212 7.92977 0.0013536 8.5094C-0.0258691 9.08907 0.300039 9.61398 0.831645 9.84664L5.83302 12.0349C5.85741 12.1481 7.29316 18.8071 7.34199 19.0335C7.40466 19.3242 7.55223 19.5832 7.86484 19.6628C8.18104 19.7434 8.40444 19.5706 8.64037 19.3939C8.77168 19.2956 12.3518 16.6148 12.3518 16.6148L16.6908 20.1654C16.9435 20.3723 17.2524 20.4802 17.5673 20.4802C17.7173 20.4802 17.8687 20.4557 18.0159 20.4058C18.4726 20.2509 18.8111 19.8782 18.9215 19.4088L22.9629 2.22613C23.0778 1.73761 22.9194 1.22361 22.5494 0.884587ZM8.96367 13.2888C8.9612 13.2946 8.95878 13.3012 8.95648 13.3091L8.11986 16.2321L7.1862 11.9019L13.6063 8.33483L9.11766 13.0282C9.04696 13.1021 8.99494 13.1915 8.96367 13.2888ZM9.22921 17.2655L9.6092 15.9378L9.97266 14.6679L11.275 15.7336L9.22921 17.2655ZM21.648 1.9168L17.6066 19.0995C17.6046 19.108 17.6019 19.1198 17.5821 19.1265C17.5625 19.1332 17.553 19.1256 17.5463 19.12L12.7984 15.2348C12.7983 15.2347 12.7982 15.2346 12.7981 15.2345L10.5983 13.4344L17.6655 6.04481C17.8963 5.80344 17.9161 5.42965 17.712 5.16528C17.5079 4.90087 17.1412 4.82536 16.8493 4.98762L6.38475 10.8018L1.37313 8.60904C1.35786 8.60239 1.34946 8.59866 1.35067 8.57283C1.35188 8.54709 1.3606 8.54417 1.37641 8.53896L21.5997 1.87255C21.6095 1.86936 21.6205 1.86568 21.6368 1.8805C21.6531 1.89542 21.6504 1.90674 21.648 1.9168Z" fill="white"/>
</svg>
