<svg width="23" height="23" viewBox="0 0 23 23" fill="none" xmlns="http://www.w3.org/2000/svg">
<path d="M11.5 0C5.15863 0 0 5.15863 0 11.5C0 13.6633 0.601096 15.7634 1.74137 17.587C1.28712 19.1785 0.466635 22.1888 0.457788 22.2202C0.415327 22.3759 0.460885 22.5422 0.577212 22.6541C0.693538 22.766 0.861615 22.8058 1.01465 22.7589L5.57308 21.3568C7.35867 22.4325 9.40346 23 11.5 23C17.8414 23 23 17.8414 23 11.5C23 5.15863 17.8414 0 11.5 0ZM11.5 22.1154C9.50121 22.1154 7.55417 21.5567 5.86898 20.5005C5.79777 20.4558 5.71594 20.4333 5.63412 20.4333C5.59033 20.4333 5.54654 20.4399 5.50408 20.4527L1.52375 21.6779C1.81612 20.6107 2.34158 18.7017 2.64633 17.6397C2.68171 17.5167 2.66181 17.384 2.59237 17.2765C1.4751 15.5573 0.884615 13.5598 0.884615 11.5C0.884615 5.64694 5.64694 0.884615 11.5 0.884615C17.3531 0.884615 22.1154 5.64694 22.1154 11.5C22.1154 17.3531 17.3531 22.1154 11.5 22.1154Z" fill="white"/>
<path d="M19.0123 14.2095C18.1958 13.7561 17.5005 13.3014 16.9932 12.9697C16.6057 12.7167 16.3258 12.534 16.1205 12.431C15.5469 12.1448 15.1121 12.3469 14.9467 12.5141C14.9259 12.5349 14.9073 12.5575 14.8914 12.5813C14.2956 13.4753 13.5176 14.3302 13.2898 14.3762C13.0266 14.3351 11.7948 13.6349 10.5705 12.6154C9.3205 11.5738 8.53407 10.5764 8.41863 9.89698C9.22054 9.07164 9.50936 8.55237 9.50936 7.96144C9.50936 7.35239 8.08867 4.80956 7.83169 4.55258C7.57382 4.29516 6.99307 4.25491 6.10536 4.43183C6.02 4.44908 5.94127 4.4911 5.87934 4.55258C5.77186 4.66006 3.2569 7.22412 4.45202 10.3318C5.7639 13.7424 9.13119 17.7068 13.4242 18.3508C13.9121 18.4238 14.3694 18.4601 14.7976 18.4601C17.3232 18.4601 18.8137 17.1893 19.2335 14.6686C19.2649 14.4842 19.176 14.3002 19.0123 14.2095ZM13.5556 17.4759C9.01575 16.7952 6.15623 12.2974 5.2778 10.0142C4.40646 7.74958 6.01336 5.73045 6.41675 5.27398C6.74494 5.21825 7.09038 5.19481 7.23457 5.21737C7.53579 5.63623 8.57875 7.60671 8.62475 7.96144C8.62475 8.19366 8.54911 8.51698 7.64857 9.41796C7.56542 9.50067 7.51898 9.61302 7.51898 9.73068C7.51898 12.0466 12.4038 15.2595 13.269 15.2595C14.0213 15.2595 15.0024 13.995 15.561 13.1709C15.5933 13.1723 15.6477 13.1833 15.7251 13.2223C15.8843 13.3023 16.1603 13.4823 16.5093 13.7106C16.9702 14.0118 17.5824 14.4116 18.3051 14.8261C17.9769 16.4051 17.0596 18.0023 13.5556 17.4759Z" fill="white"/>
</svg>
