<svg width="30" height="30" viewBox="0 0 30 30" fill="none" xmlns="http://www.w3.org/2000/svg">
<g clip-path="url(#clip0_2_1172)">
<path d="M27.5962 6.77034C27.5962 6.76419 27.5901 6.7519 27.5901 6.74575C27.5901 6.73346 27.5839 6.72731 27.5839 6.71502C27.5839 6.70887 27.5778 6.69657 27.5778 6.69042C27.5778 6.68428 27.5716 6.67198 27.5655 6.66584C27.5593 6.65969 27.5593 6.64739 27.5532 6.64124C27.547 6.6351 27.547 6.6228 27.5409 6.61665C27.5348 6.61051 27.5348 6.59821 27.5286 6.59207C27.5225 6.57977 27.5163 6.56747 27.504 6.55518C27.4979 6.54903 27.4979 6.54288 27.4917 6.53674C27.4856 6.52444 27.4733 6.51215 27.4671 6.506L22.4077 0.22807C22.3954 0.209627 22.377 0.197333 22.3647 0.178891C22.3585 0.172743 22.3585 0.172741 22.3524 0.172741C22.3401 0.160446 22.3278 0.148152 22.3155 0.135857C22.3093 0.129709 22.3032 0.129709 22.2971 0.123561C22.2848 0.117414 22.2725 0.105117 22.2602 0.0989695C22.254 0.092822 22.2479 0.092825 22.2417 0.0866774C22.2294 0.0805299 22.2171 0.0743793 22.2048 0.0682318C22.1987 0.0620843 22.1925 0.0620873 22.1864 0.0559397C22.1741 0.0497922 22.1618 0.0436416 22.1434 0.0374941C22.1372 0.0374941 22.1311 0.0313481 22.1249 0.0313481C22.1126 0.0252005 22.0942 0.0251998 22.0819 0.0190522C22.0757 0.0190522 22.0696 0.0129062 22.0634 0.0129062C22.045 0.00675864 22.0327 0.00675639 22.0143 0.00675639C22.0081 0.00675639 22.002 0.00675639 21.9958 0.00675639C21.9712 0.00675639 21.9528 0.000610352 21.9282 0.000610352H5.56344C5.22533 0.000610352 4.94869 0.277312 4.94869 0.615488V3.14262H3.01221C2.6741 3.14262 2.39746 3.41932 2.39746 3.7575V29.3857C2.39746 29.7238 2.6741 30.0005 3.01221 30.0005H24.4794C24.8175 30.0005 25.0942 29.7238 25.0942 29.3857V26.8585H26.9876C27.3257 26.8585 27.6024 26.5818 27.6024 26.2436V6.88715C27.6024 6.8687 27.6024 6.85026 27.6024 6.83182C27.6024 6.82567 27.6024 6.81952 27.6024 6.80723C27.6024 6.79493 27.6024 6.78264 27.5962 6.77034ZM22.543 2.34934L25.7028 6.27227H22.543V2.34934ZM21.4917 7.28065L23.1884 9.37125H20.0348V5.4852L21.4118 7.18229C21.4364 7.21918 21.461 7.24991 21.4917 7.28065ZM6.1782 1.22409H21.3134V5.10399L19.8995 3.36387C19.8872 3.34542 19.8688 3.33313 19.8565 3.31469C19.8503 3.30854 19.8503 3.30854 19.8442 3.30239C19.8319 3.2901 19.8196 3.28395 19.8073 3.27165C19.8011 3.26551 19.795 3.26551 19.7889 3.25936C19.7766 3.25321 19.7643 3.24092 19.752 3.23477C19.7458 3.22862 19.7397 3.22862 19.7335 3.22247C19.7212 3.21633 19.7089 3.21018 19.6966 3.20403C19.6905 3.19789 19.6843 3.19788 19.6782 3.19788C19.6659 3.19174 19.6475 3.18559 19.6352 3.17944C19.629 3.17944 19.6229 3.1733 19.6167 3.1733C19.6044 3.16715 19.586 3.16715 19.5737 3.161C19.5675 3.161 19.5614 3.15485 19.5552 3.15485C19.5368 3.14871 19.5245 3.1487 19.5061 3.1487C19.4999 3.1487 19.4938 3.1487 19.4876 3.1487C19.463 3.1487 19.4446 3.14256 19.42 3.14256H6.1782V1.22409ZM3.62697 28.7707V4.36616H18.8052V9.98618C18.8052 10.3244 19.0819 10.6011 19.42 10.6011H23.8647V28.7708H3.62697V28.7707ZM26.3729 25.6348H25.0942V25.6287V9.97997C25.0942 9.96153 25.0942 9.94309 25.0942 9.92465C25.0942 9.9185 25.0942 9.91235 25.0942 9.90006C25.0942 9.88776 25.0942 9.87547 25.088 9.86317C25.088 9.85703 25.0819 9.84473 25.0819 9.83858C25.0819 9.82629 25.0757 9.82014 25.0757 9.80784C25.0757 9.79555 25.0696 9.7894 25.0696 9.78325C25.0696 9.7771 25.0634 9.76481 25.0573 9.75866C25.0511 9.75252 25.0511 9.74022 25.045 9.73407C25.0389 9.72793 25.0389 9.71563 25.0327 9.70949C25.0266 9.70334 25.0266 9.69104 25.0204 9.68489C25.0143 9.6726 25.0081 9.6603 25.002 9.65416C24.9958 9.64801 24.9958 9.64186 24.9897 9.64186C24.9774 9.62956 24.9712 9.61112 24.9589 9.59883L23.2622 7.50823H26.3729V25.6348Z" fill="white"/>
<path d="M20.0325 13.1154H7.4546C7.11648 13.1154 6.83984 13.3921 6.83984 13.7302C6.83984 14.0684 7.11648 14.3451 7.4546 14.3451H20.0325C20.3706 14.3451 20.6472 14.0684 20.6472 13.7302C20.6472 13.3921 20.3706 13.1154 20.0325 13.1154Z" fill="white"/>
<path d="M20.0325 16.8666H7.4546C7.11648 16.8666 6.83984 17.1433 6.83984 17.4815C6.83984 17.8196 7.11648 18.0963 7.4546 18.0963H20.0325C20.3706 18.0963 20.6472 17.8196 20.6472 17.4815C20.6472 17.1433 20.3706 16.8666 20.0325 16.8666Z" fill="white"/>
<path d="M20.0325 20.6172H7.4546C7.11648 20.6172 6.83984 20.8939 6.83984 21.2321C6.83984 21.5702 7.11648 21.8469 7.4546 21.8469H20.0325C20.3706 21.8469 20.6472 21.5702 20.6472 21.2321C20.6472 20.8939 20.3706 20.6172 20.0325 20.6172Z" fill="white"/>
<path d="M20.0325 24.3678H7.4546C7.11648 24.3678 6.83984 24.6445 6.83984 24.9827C6.83984 25.3208 7.11648 25.5976 7.4546 25.5976H20.0325C20.3706 25.5976 20.6472 25.3208 20.6472 24.9827C20.6472 24.6445 20.3706 24.3678 20.0325 24.3678Z" fill="white"/>
</g>
<defs>
<clipPath id="clip0_2_1172">
<rect width="30" height="30" fill="white"/>
</clipPath>
</defs>
</svg>
