<svg width="1919" height="2114" viewBox="0 0 1919 2114" fill="none" xmlns="http://www.w3.org/2000/svg">
<g clip-path="url(#clip0_2_733)">
<path d="M2370.19 -328.289C2370.19 -328.289 2073.13 7.52164 2125.85 838.253C2185.01 1769.73 1841.97 2169.5 1607.59 1939.23C1373.22 1708.16 1389.61 853.444 944.01 827.059C488.441 799.874 392.633 -275.519 392.633 -275.519" stroke="#002ED9" stroke-opacity="0.17" stroke-width="1.52129" stroke-miterlimit="10"/>
<path d="M2026.83 -578.552C2026.83 -578.552 1898.23 131.447 1944.21 837.449C1990.5 1543.45 1782.49 1626.6 1699.86 1543.45C1528.18 1372.35 1495.07 456.064 1217.93 396.897C1009.6 352.123 729.248 706.323 580.714 -97.2237" stroke="#002ED9" stroke-opacity="0.17" stroke-width="1.52129" stroke-miterlimit="10"/>
<path d="M1888.27 -262.737C1888.27 -262.737 1934.56 462.453 1729.77 332.927C1495.07 184.21 1498.61 -164.393 1201.54 165.021C1095.76 282.555 670.094 316.936 755.935 -329.1" stroke="#002ED9" stroke-opacity="0.17" stroke-width="1.52129" stroke-miterlimit="10"/>
<path d="M1739.74 1293.19C1788.92 1293.19 1828.8 1147.14 1828.8 966.974C1828.8 786.81 1788.92 640.758 1739.74 640.758C1690.55 640.758 1650.68 786.81 1650.68 966.974C1650.68 1147.14 1690.55 1293.19 1739.74 1293.19Z" stroke="#002ED9" stroke-opacity="0.17" stroke-width="1.52129" stroke-miterlimit="10"/>
<path d="M-1117.4 2860.03C-1117.4 2860.03 -752.899 2445.07 -818.229 1437.3C-891.526 307.316 -470.62 -186.427 -182.688 87.6837C105.244 362.766 85.7214 1401.32 632.854 1422.76C1192.22 1444.93 1310.62 2748.84 1310.62 2748.84" stroke="#002ED9" stroke-opacity="0.17" stroke-width="1.52129" stroke-miterlimit="10"/>
<path d="M-602.385 3127.04C-602.385 3127.04 -463.466 2361.75 -513.734 1604.43C-564.35 847.12 -338.977 753.429 -249.382 841.001C-63.2209 1021.16 -26.7573 2004.61 273.614 2062.32C499.415 2106.03 803.01 1719.69 964.484 2579.62" stroke="#002ED9" stroke-opacity="0.17" stroke-width="1.52129" stroke-miterlimit="10"/>
<path d="M-451.698 2785.33C-451.698 2785.33 -502.296 2016.55 -280.404 2149.77C-26.1162 2302.74 -29.7278 2672.83 291.813 2317C406.3 2190.04 867.31 2144.69 774.744 2832.2" stroke="#002ED9" stroke-opacity="0.17" stroke-width="1.52129" stroke-miterlimit="10"/>
<path d="M-555.555 2185.33C-555.555 2185.33 -177.974 1831.92 -240.809 839.576C-311.309 -273.116 124.763 -695.431 420.333 -387.418C715.9 -78.4574 691.132 931.949 1255.01 1030.02C1831.51 1130.53 1947.72 2419.27 1947.72 2419.27" stroke="#002ED9" stroke-opacity="0.17" stroke-width="1.52129" stroke-miterlimit="10"/>
<path d="M-125.453 2558.34C-125.453 2558.34 40.8732 1726.43 -14.0667 872.83C-69.414 19.1828 194.6 -48.979 298.923 63.2705C515.697 294.498 553.348 1398.31 904.294 1511.3C1168.11 1596.6 1525.08 1214.38 1709.54 2200.51" stroke="#002ED9" stroke-opacity="0.17" stroke-width="1.52129" stroke-miterlimit="10"/>
<path d="M51.6946 2223.66C51.6946 2223.66 -3.39101 1402.05 254.581 1576.74C550.214 1777.26 544.13 2168.55 920.733 1840.57C1054.83 1723.52 1592.43 1745.42 1481.05 2459.28" stroke="#002ED9" stroke-opacity="0.17" stroke-width="1.52129" stroke-miterlimit="10"/>
<path d="M253.031 364.206C190.133 356.534 138.449 530.512 137.591 752.797C136.733 975.083 187.026 1161.5 249.924 1169.17C312.822 1176.85 364.506 1002.87 365.364 780.582C366.222 558.296 315.929 371.879 253.031 364.206Z" stroke="#002ED9" stroke-opacity="0.17" stroke-width="1.52129" stroke-miterlimit="10"/>
<path d="M1113.68 4300.52C1113.68 4300.52 1491.26 3947.11 1428.43 2954.77C1357.93 1842.08 1794 1419.76 2089.57 1727.78C2385.14 2036.74 2360.37 3047.14 2924.25 3145.21C3500.74 3245.73 3616.96 4534.46 3616.96 4534.46" stroke="#002ED9" stroke-opacity="0.17" stroke-width="1.52129" stroke-miterlimit="10"/>
<path d="M1543.6 4681.09C1543.6 4681.09 1709.92 3849.18 1654.98 2995.58C1599.63 2141.94 1863.65 2073.77 1967.97 2186.02C2184.75 2417.25 2222.4 3521.06 2573.34 3634.06C2837.16 3719.35 3194.13 3337.13 3378.59 4323.26" stroke="#002ED9" stroke-opacity="0.17" stroke-width="1.52129" stroke-miterlimit="10"/>
</g>
<defs>
<clipPath id="clip0_2_733">
<rect width="1920" height="2114" fill="white" transform="translate(-1)"/>
</clipPath>
</defs>
</svg>
